<?xml version="1.0"?>
<svg xmlns="http://www.w3.org/2000/svg" height="512px" viewBox="0 -24 480 480" width="512px"><path d="m99.015625 104h-51.015625c-4.417969 0-8 3.582031-8 8v190.664062c0 4.417969 3.582031 8 8 8h51.015625c4.417969 0 8-3.582031 8-8v-190.664062c0-4.417969-3.582031-8-8-8zm-8 32h-11.015625v16h11.015625v16h-16.351563v16h16.351563v16h-11.015625v16h11.015625v16h-16.351563v16h16.351563v16h-11.015625v16h11.015625v14.664062h-35.015625v-174.664062h35.015625zm0 0" fill="#00B6BE"/><path d="m456 0h-432c-13.253906 0-24 10.746094-24 24v304c0 13.253906 10.746094 24 24 24h160v35.054688l-27.574219 13.785156c-2.714843 1.355468-4.425781 4.128906-4.425781 7.160156v16c0 4.417969 3.582031 8 8 8h160c4.417969 0 8-3.582031 8-8v-16c.015625-3.046875-1.699219-5.839844-4.425781-7.199219l-27.574219-13.746093v-35.054688h160c13.253906 0 24-10.746094 24-24v-304c0-13.253906-10.746094-24-24-24zm-144 412.945312v3.054688h-144v-3.054688l27.574219-13.746093c2.726562-1.359375 4.441406-4.152344 4.425781-7.199219v-40h80v40c-.015625 3.046875 1.699219 5.839844 4.425781 7.199219zm152-84.945312c0 4.417969-3.582031 8-8 8h-432c-4.417969 0-8-3.582031-8-8v-248h240v8c0 4.417969-3.582031 8-8 8h-48c-13.253906 0-24 10.746094-24 24s10.746094 24 24 24h48c4.417969 0 8 3.582031 8 8v8.640625c-27.527344 3.972656-47.96875 27.546875-48 55.359375v48c0 30.929688 25.070312 56 56 56s56-25.070312 56-56v-48c-.03125-27.8125-20.472656-51.386719-48-55.359375v-8.640625c0-13.253906-10.746094-24-24-24h-48c-4.417969 0-8-3.582031-8-8s3.582031-8 8-8h48c13.253906 0 24-10.746094 24-24v-8h192zm-200-152c22.082031.027344 39.972656 17.917969 40 40v48c0 22.089844-17.910156 40-40 40s-40-17.910156-40-40v-48c.027344-22.082031 17.917969-39.972656 40-40zm200-112h-448v-40c0-4.417969 3.582031-8 8-8h432c4.417969 0 8 3.582031 8 8zm0 0" fill="#00B6BE"/><path d="m400 32h16v16h-16zm0 0" fill="#00B6BE"/><path d="m432 32h16v16h-16zm0 0" fill="#00B6BE"/><path d="m356.183594 160h-4.183594v16h8v128c0 13.253906 10.746094 24 24 24s24-10.746094 24-24v-8h16c4.417969 0 8-3.582031 8-8v-40c.015625-3.046875-1.699219-5.839844-4.425781-7.199219l-6.070313-3.03125 8.152344-8.152343-11.3125-11.3125-10.34375 10.382812v-52.6875h8v-16h-4.183594l11.617188-29.023438c1.1875-2.972656.488281-6.371093-1.777344-8.632812l-32-32c-3.125-3.121094-8.1875-3.121094-11.3125 0l-32 32c-2.265625 2.261719-2.964844 5.660156-1.777344 8.632812zm51.816406 88.945312 8 4v27.054688h-8zm-16 55.054688c0 4.417969-3.582031 8-8 8s-8-3.582031-8-8v-8h16zm0-24h-16v-104h16zm-16-164.6875v20.6875h16v-20.6875l14.617188 14.617188-12.03125 30.070312h-21.171876l-12-30.070312zm0 0" fill="#00B6BE"/><path d="m256 192h16v24h-16zm0 0" fill="#00B6BE"/><path d="m160 200c-17.671875 0-32 14.328125-32 32v72c0 4.417969 3.582031 8 8 8h48c4.417969 0 8-3.582031 8-8v-72c0-17.671875-14.328125-32-32-32zm16 96h-32v-48h32zm-32-64c0-8.835938 7.164062-16 16-16s16 7.164062 16 16zm0 0" fill="#00B6BE"/></svg>
