<?xml version="1.0" encoding="iso-8859-1"?>
<!-- Generator: Adobe Illustrator 19.0.0, SVG Export Plug-In . SVG Version: 6.00 Build 0)  -->
<svg xmlns="http://www.w3.org/2000/svg" xmlns:xlink="http://www.w3.org/1999/xlink" version="1.1" id="Capa_1" x="0px" y="0px" viewBox="0 0 511.999 511.999" style="enable-background:new 0 0 511.999 511.999;" xml:space="preserve" width="512px" height="512px">
<g>
	<g>
		<g>
			<path d="M418.133,0H93.866C70.314,0.028,51.227,19.114,51.2,42.667v273.067c0.028,23.553,19.114,42.639,42.667,42.667H128     c4.713,0,8.533-3.82,8.533-8.533s-3.82-8.533-8.533-8.533H93.866c-14.132-0.015-25.585-11.468-25.6-25.6v-230.4h375.467v230.4     c-0.015,14.132-11.468,25.585-25.6,25.6H384c-4.713,0-8.533,3.82-8.533,8.533s3.82,8.533,8.533,8.533h34.133     c23.553-0.028,42.639-19.114,42.667-42.667V42.667C460.772,19.114,441.686,0.028,418.133,0z M443.733,68.267H68.266v-25.6     c0.015-14.132,11.468-25.585,25.6-25.6h324.267c14.132,0.015,25.585,11.468,25.6,25.6V68.267z" fill="#FFFFFF"/>
			<path d="M110.25,39.421c-0.188-0.543-0.448-1.058-0.771-1.533c-0.312-0.448-0.653-0.876-1.021-1.28     c-2.478-2.378-6.12-3.08-9.304-1.796c-1.033,0.434-1.985,1.041-2.813,1.796c-0.341,0.425-0.683,0.85-1.025,1.279     c-0.323,0.475-0.582,0.991-0.771,1.533c-0.245,0.484-0.417,1.003-0.508,1.538c-0.1,0.564-0.157,1.135-0.171,1.708     c0.012,1.115,0.243,2.216,0.679,3.242c0.434,1.034,1.041,1.987,1.795,2.817c0.83,0.752,1.781,1.358,2.813,1.792     c1.027,0.438,2.13,0.67,3.246,0.683c0.571-0.016,1.141-0.073,1.704-0.171c0.535-0.095,1.053-0.268,1.537-0.513     c0.544-0.188,1.062-0.447,1.538-0.771c0.425-0.338,0.85-0.679,1.279-1.021c0.752-0.831,1.358-1.783,1.792-2.817     c0.478-1.012,0.712-2.123,0.683-3.242c-0.015-0.573-0.072-1.144-0.171-1.708C110.668,40.424,110.495,39.906,110.25,39.421z" fill="#FFFFFF"/>
			<path d="M134.865,34.203c-2.817,0.57-5.149,2.537-6.186,5.218c-0.437,1.027-0.668,2.13-0.68,3.246     c-0.022,2.27,0.87,4.453,2.475,6.058c1.605,1.605,3.788,2.497,6.058,2.475c1.119,0.029,2.229-0.205,3.242-0.683     c1.033-0.434,1.986-1.04,2.817-1.791c0.341-0.429,0.683-0.854,1.021-1.279c0.324-0.476,0.583-0.993,0.771-1.538     c0.245-0.485,0.418-1.003,0.512-1.538c0.094-0.564,0.151-1.133,0.171-1.704c-0.033-2.259-0.917-4.422-2.475-6.059     C140.596,34.54,137.682,33.633,134.865,34.203z" fill="#FFFFFF"/>
			<path d="M175.446,35.583c-0.476-0.324-0.993-0.583-1.538-0.771c-0.484-0.245-1.003-0.417-1.538-0.508     c-1.123-0.258-2.29-0.258-3.413,0c-0.535,0.091-1.053,0.263-1.537,0.508c-0.543,0.188-1.058,0.448-1.533,0.771     c-0.429,0.341-0.854,0.683-1.279,1.025c-1.559,1.635-2.443,3.799-2.475,6.059c0.012,1.115,0.243,2.216,0.679,3.242     c0.414,1.045,1.023,2.001,1.795,2.817c0.425,0.341,0.85,0.683,1.279,1.021c0.475,0.323,0.991,0.582,1.533,0.771     c0.485,0.245,1.003,0.418,1.538,0.512c1.126,0.228,2.286,0.228,3.413,0c0.535-0.095,1.053-0.268,1.537-0.513     c0.544-0.188,1.062-0.447,1.537-0.771c0.425-0.338,0.85-0.679,1.279-1.021c0.77-0.817,1.378-1.773,1.792-2.817     c0.437-1.026,0.669-2.127,0.683-3.242c-0.033-2.259-0.917-4.422-2.475-6.059C176.296,36.267,175.871,35.925,175.446,35.583z" fill="#FFFFFF"/>
			<path d="M290.133,34.133h-68.267c-4.713,0-8.533,3.82-8.533,8.533s3.82,8.533,8.533,8.533h68.267c4.713,0,8.533-3.82,8.533-8.533     S294.846,34.133,290.133,34.133z" fill="#FFFFFF"/>
			<path d="M256,187.733c-36.143,0.059-68.348,22.828-80.454,56.883c-1.018,2.873-0.426,6.071,1.553,8.389     c1.979,2.318,5.044,3.405,8.042,2.85c2.997-0.555,5.471-2.666,6.489-5.539c9.687-27.247,35.453-45.467,64.371-45.517     c4.713,0,8.533-3.82,8.533-8.533S260.713,187.733,256,187.733z" fill="#FFFFFF"/>
			<path d="M426.666,298.667v-59.733c-0.009-9.422-7.645-17.057-17.067-17.067h-45.849c-2.83-5.951-6.145-11.66-9.911-17.067h55.76     c9.422-0.009,17.057-7.645,17.067-17.067V128c-0.009-9.422-7.645-17.057-17.067-17.067H102.4     c-9.422,0.009-17.057,7.645-17.067,17.067v59.733c0.009,9.422,7.645,17.057,17.067,17.067h55.544     c-3.743,5.405-7.027,11.114-9.817,17.067H102.4c-9.422,0.009-17.057,7.645-17.067,17.067v59.733     c0.009,9.422,7.645,17.057,17.067,17.067h41.996c8.085,21.216,22.084,39.669,40.337,53.171c1.971,1.593,3.081,4.017,3,6.55V384     c0.02,6.319,2.394,12.404,6.658,17.067c-5.094,5.56-7.448,13.098-6.423,20.569c1.025,7.47,5.321,14.097,11.724,18.08     c-3.871,6.65-4.496,14.702-1.698,21.87c2.798,7.167,8.714,12.667,16.066,14.935c3.442,20.48,21.172,35.48,41.94,35.48     s38.498-14.999,41.94-35.48c10.566-3.366,17.755-13.164,17.793-24.253c-0.028-4.411-1.208-8.738-3.425-12.551     c6.414-3.992,10.714-10.636,11.729-18.122s-1.361-15.035-6.481-20.591c4.364-4.975,6.752-11.377,6.71-17.995V375.4     c-0.068-2.523,1.05-4.932,3.021-6.508c18.129-13.559,32.026-31.996,40.068-53.158H409.6     C419.021,315.724,426.657,308.088,426.666,298.667z M139.361,298.667H102.4v-59.733h39.107     C135.704,258.335,134.965,278.899,139.361,298.667z M102.4,187.733V128h307.2v59.733h-70.298     c-46.026-45.224-119.698-45.56-166.135-0.758c-0.252,0.243-0.464,0.514-0.714,0.758H102.4z M256,494.933     c-10.813-0.033-20.435-6.868-24.027-17.067h48.055C276.435,488.066,266.813,494.9,256,494.933z M290.133,460.8h-68.267     c-4.713,0-8.533-3.821-8.533-8.533c0-4.713,3.82-8.533,8.533-8.533h68.267c4.713,0,8.533,3.821,8.533,8.533     C298.666,456.979,294.846,460.8,290.133,460.8z M298.666,426.667h-85.333c-4.713,0-8.533-3.82-8.533-8.533     s3.82-8.533,8.533-8.533h85.333c4.71,0.006,8.527,3.823,8.533,8.533C307.194,422.844,303.377,426.661,298.666,426.667z      M317.096,355.2c-6.29,4.804-9.955,12.286-9.896,20.2v7.608c0.209,2.413-0.589,4.805-2.205,6.61     c-1.616,1.804-3.907,2.859-6.328,2.915h-85.333c-4.71-0.006-8.527-3.823-8.533-8.533v-8.546     c0.072-7.925-3.588-15.422-9.879-20.242c-26.1-19.213-41.454-49.737-41.321-82.146c-0.015-13.454,2.625-26.778,7.77-39.209     c0.057-0.128,0.093-0.259,0.144-0.391c15.997-38.017,53.207-62.758,94.453-62.801c1.35,0,2.707,0.025,4.071,0.075     c25.838,1.04,50.318,11.851,68.49,30.247c0.471,0.706,1.047,1.335,1.709,1.867c8.367,8.815,15.109,19.04,19.914,30.204     c0.119,0.381,0.265,0.753,0.438,1.113c4.612,11.02,7.229,22.771,7.729,34.706v0.004     C359.674,302.697,344.247,335.001,317.096,355.2z M375.366,268.203c-0.431-9.93-2.12-19.765-5.026-29.27H409.6v59.733h-37.006     C374.82,288.673,375.751,278.435,375.366,268.203z" fill="#FFFFFF"/>
		</g>
	</g>
</g>
<g>
</g>
<g>
</g>
<g>
</g>
<g>
</g>
<g>
</g>
<g>
</g>
<g>
</g>
<g>
</g>
<g>
</g>
<g>
</g>
<g>
</g>
<g>
</g>
<g>
</g>
<g>
</g>
<g>
</g>
</svg>
