<?xml version="1.0" encoding="iso-8859-1"?>
<!-- Generator: Adobe Illustrator 19.0.0, SVG Export Plug-In . SVG Version: 6.00 Build 0)  -->
<svg xmlns="http://www.w3.org/2000/svg" xmlns:xlink="http://www.w3.org/1999/xlink" version="1.1" id="Layer_1" x="0px" y="0px" viewBox="0 0 512 512" style="enable-background:new 0 0 512 512;" xml:space="preserve" width="512px" height="512px">
<g>
	<g>
		<g>
			<path d="M312.636,102.839c1.664,1.672,3.849,2.5,6.033,2.5s4.361-0.828,6.033-2.5c3.328-3.328,3.328-8.738,0-12.066     l-28.535-28.527c-3.337-3.337-8.73-3.337-12.066,0c-3.337,3.337-3.337,8.738,0,12.066L312.636,102.839z" fill="#FFFFFF"/>
			<path d="M221.884,145.079c0,4.71,3.814,8.533,8.533,8.533h42.65c4.719,0,8.533-3.823,8.533-8.533s-3.814-8.533-8.533-8.533     h-42.65C225.698,136.546,221.884,140.369,221.884,145.079z" fill="#FFFFFF"/>
			<path d="M221.867,34.146c0,4.71,3.814,8.533,8.533,8.533s8.533-3.823,8.533-8.533c4.719,0,8.533-3.823,8.533-8.533     s-3.814-8.533-8.533-8.533c0-4.71-3.814-8.533-8.533-8.533s-8.533,3.823-8.533,8.533c-4.719,0-8.533,3.823-8.533,8.533     S217.148,34.146,221.867,34.146z" fill="#FFFFFF"/>
			<path d="M486.4,68.279c0,4.71,3.814,8.533,8.533,8.533s8.533-3.823,8.533-8.533c4.719,0,8.533-3.823,8.533-8.533     c0-4.71-3.814-8.533-8.533-8.533c0-4.71-3.814-8.533-8.533-8.533s-8.533,3.823-8.533,8.533c-4.719,0-8.533,3.823-8.533,8.533     C477.867,64.457,481.681,68.279,486.4,68.279z" fill="#FFFFFF"/>
			<path d="M415.206,105.34c2.185,0,4.369-0.828,6.033-2.5l28.527-28.527c3.337-3.336,3.337-8.738,0-12.066     c-3.336-3.337-8.73-3.337-12.066,0l-28.527,28.527c-3.328,3.337-3.328,8.738,0,12.066     C410.846,104.512,413.022,105.34,415.206,105.34z" fill="#FFFFFF"/>
			<path d="M366.933,85.346c4.719,0,8.533-3.823,8.533-8.533V8.546c0-4.71-3.814-8.533-8.533-8.533S358.4,3.836,358.4,8.546v68.267     C358.4,81.523,362.214,85.346,366.933,85.346z" fill="#FFFFFF"/>
			<path d="M342.801,120.939l-86.537,86.537c-3.328,3.336-3.328,8.73,0,12.066c3.337,3.337,8.738,3.337,12.066,0l86.536-86.536     c6.648-6.648,17.485-6.648,24.132,0c3.226,3.226,5,7.518,5,12.075c0,4.557-1.775,8.841-5,12.066l-332.8,332.8     c-6.647,6.647-17.485,6.647-24.132,0c-3.226-3.226-5.001-7.518-5.001-12.075c0-4.557,1.775-8.841,5.001-12.066l215.834-215.834     l7.799,7.808c3.337,3.328,8.73,3.328,12.066,0c3.337-3.337,3.337-8.738,0-12.075l-13.833-13.833     c-3.337-3.328-8.738-3.328-12.066,0L10.001,453.739C3.55,460.181,0,468.757,0,477.871c0,9.114,3.55,17.69,10.001,24.141     c6.648,6.648,15.394,9.976,24.132,9.976c8.738,0,17.485-3.328,24.132-9.976l332.8-332.8c6.451-6.443,10.001-15.019,10.001-24.132     s-3.55-17.69-10.001-24.141C377.771,107.635,356.096,107.644,342.801,120.939z" fill="#FFFFFF"/>
			<path d="M503.467,290.146h-8.533v-8.533c0-4.71-3.814-8.533-8.533-8.533s-8.533,3.823-8.533,8.533v8.533h-8.533     c-4.719,0-8.533,3.823-8.533,8.533c0,4.71,3.814,8.533,8.533,8.533h8.533v8.533c0,4.71,3.814,8.533,8.533,8.533     s8.533-3.823,8.533-8.533v-8.533h8.533c4.719,0,8.533-3.823,8.533-8.533C512,293.969,508.186,290.146,503.467,290.146z" fill="#FFFFFF"/>
			<path d="M421.231,187.311c-3.328-3.328-8.73-3.328-12.066,0c-3.328,3.337-3.328,8.738,0,12.066l28.535,28.535     c1.664,1.664,3.849,2.5,6.033,2.5c2.185,0,4.369-0.836,6.033-2.5c3.337-3.337,3.337-8.73,0-12.066L421.231,187.311z" fill="#FFFFFF"/>
			<path d="M503.467,136.546H435.2c-4.719,0-8.533,3.823-8.533,8.533s3.814,8.533,8.533,8.533h68.267     c4.719,0,8.533-3.823,8.533-8.533S508.186,136.546,503.467,136.546z" fill="#FFFFFF"/>
			<path d="M366.933,230.413c-4.719,0-8.533,3.823-8.533,8.533v42.658c0,4.71,3.814,8.533,8.533,8.533s8.533-3.823,8.533-8.533     v-42.658C375.467,234.236,371.652,230.413,366.933,230.413z" fill="#FFFFFF"/>
			<path d="M128,136.546h8.533v8.533c0,4.71,3.814,8.533,8.533,8.533s8.533-3.823,8.533-8.533v-8.533h8.533     c4.719,0,8.533-3.823,8.533-8.533c0-4.71-3.814-8.533-8.533-8.533H153.6v-8.533c0-4.71-3.814-8.533-8.533-8.533     s-8.533,3.823-8.533,8.533v8.533H128c-4.719,0-8.533,3.823-8.533,8.533C119.467,132.723,123.281,136.546,128,136.546z" fill="#FFFFFF"/>
			<path d="M332.8,324.279c0-4.71-3.814-8.533-8.533-8.533c-4.719,0-8.533,3.823-8.533,8.533c-4.719,0-8.533,3.823-8.533,8.533     s3.814,8.533,8.533,8.533c0,4.71,3.814,8.533,8.533,8.533c4.719,0,8.533-3.823,8.533-8.533c4.719,0,8.533-3.823,8.533-8.533     S337.519,324.279,332.8,324.279z" fill="#FFFFFF"/>
		</g>
	</g>
</g>
<g>
</g>
<g>
</g>
<g>
</g>
<g>
</g>
<g>
</g>
<g>
</g>
<g>
</g>
<g>
</g>
<g>
</g>
<g>
</g>
<g>
</g>
<g>
</g>
<g>
</g>
<g>
</g>
<g>
</g>
</svg>
