<?xml version="1.0" encoding="iso-8859-1"?>
<!-- Generator: Adobe Illustrator 19.0.0, SVG Export Plug-In . SVG Version: 6.00 Build 0)  -->
<svg xmlns="http://www.w3.org/2000/svg" xmlns:xlink="http://www.w3.org/1999/xlink" version="1.1" id="Capa_1" x="0px" y="0px" viewBox="0 0 463.021 463.021" style="enable-background:new 0 0 463.021 463.021;" xml:space="preserve" width="512px" height="512px">
<g>
	<path d="M442.763,174.192c-140.176-18.703-282.327-18.703-422.502,0c-11.544,1.54-20.249,11.513-20.249,23.237   c0,6.695,2.881,13.064,7.906,17.475c5.057,4.438,11.794,6.482,18.494,5.606c28.366-3.708,56.816-6.632,85.314-8.794L97.126,438.008   c-0.417,6.457,1.882,12.867,6.307,17.587c4.425,4.72,10.674,7.427,17.144,7.427h221.869c6.47,0,12.718-2.707,17.143-7.427   s6.725-11.13,6.308-17.586l-14.6-226.292c28.498,2.162,56.948,5.086,85.314,8.794h0c1.018,0.133,2.036,0.199,3.05,0.199   c5.656,0,11.156-2.042,15.443-5.806c5.024-4.41,7.906-10.779,7.906-17.515C463.012,185.705,454.307,175.732,442.763,174.192z    M348.647,445.335c-1.625,1.732-3.826,2.687-6.201,2.687H120.577c-2.375,0-4.577-0.954-6.201-2.687s-2.434-3.991-2.281-6.361   l10.319-159.952h218.195l10.32,159.952C351.082,441.344,350.271,443.602,348.647,445.335z M339.642,264.021h-216.26l3.444-53.383   c69.706-4.619,139.665-4.619,209.372,0L339.642,264.021z M445.21,203.632c-1.837,1.614-4.199,2.324-6.654,2.006h0   c-137.385-17.96-276.705-17.96-414.089,0c-2.452,0.317-4.816-0.393-6.654-2.006c-1.807-1.586-2.802-3.789-2.802-6.242   c0-4.198,3.109-7.778,7.232-8.328c138.861-18.527,279.677-18.527,418.536,0c4.123,0.55,7.232,4.13,7.232,8.368   C448.012,199.843,447.017,202.046,445.21,203.632z" fill="#FFFFFF"/>
	<path d="M15.87,45.747l256,88c2.475,0.851,5.046,1.282,7.642,1.282c10.03,0,18.961-6.376,22.226-15.868   c4.208-12.253-2.333-25.649-14.585-29.865L31.155,1.297c-5.957-2.051-12.342-1.658-17.979,1.102   C7.548,5.153,3.326,9.941,1.285,15.882C-2.923,28.135,3.619,41.531,15.87,45.747z M229.749,85.425l-5.529,16.081l-12.928-4.444   l5.529-16.081L229.749,85.425z M287.552,114.285c-1.182,3.436-4.413,5.744-8.041,5.744c-0.933,0-1.862-0.157-2.765-0.468   l-38.342-13.18l5.529-16.081l38.341,13.18C286.707,105.006,289.074,109.854,287.552,114.285z M15.472,20.755   c0.74-2.155,2.267-3.89,4.298-4.884c1.171-0.573,2.434-0.862,3.707-0.862c0.938,0,1.882,0.157,2.8,0.473l176.36,60.623   l-5.529,16.081L20.749,31.562C16.316,30.037,13.949,25.188,15.472,20.755z" fill="#FFFFFF"/>
	<path d="M328.22,351.037c-0.266-4.134-3.826-7.272-7.967-7.002c-4.133,0.267-7.268,3.834-7.001,7.967l4.646,72.002   c0.256,3.97,3.555,7.018,7.477,7.018c0.162,0,0.326-0.005,0.49-0.016c4.133-0.267,7.268-3.834,7.001-7.967L328.22,351.037z" fill="#FFFFFF"/>
	<path d="M318.664,327.021c0.162,0,0.326-0.005,0.49-0.016c4.133-0.267,7.268-3.834,7.001-7.967l-1.032-16.003   c-0.266-4.134-3.816-7.271-7.967-7.002c-4.133,0.267-7.268,3.834-7.001,7.967l1.032,16.003   C311.443,323.973,314.742,327.021,318.664,327.021z" fill="#FFFFFF"/>
	<path d="M320.012,111.521c0,4.143,3.358,7.5,7.5,7.5c13.509,0,24.5,10.99,24.5,24.5c0,4.143,3.358,7.5,7.5,7.5s7.5-3.357,7.5-7.5   c0-13.51,10.991-24.5,24.5-24.5c4.142,0,7.5-3.357,7.5-7.5s-3.358-7.5-7.5-7.5c-13.509,0-24.5-10.99-24.5-24.5   c0-4.143-3.358-7.5-7.5-7.5s-7.5,3.357-7.5,7.5c0,13.51-10.991,24.5-24.5,24.5C323.37,104.021,320.012,107.379,320.012,111.521z    M359.512,102.654c2.467,3.402,5.464,6.4,8.867,8.867c-3.402,2.467-6.4,5.465-8.867,8.867c-2.467-3.402-5.464-6.4-8.867-8.867   C354.048,109.054,357.045,106.056,359.512,102.654z" fill="#FFFFFF"/>
	<path d="M287.512,55.021h8.5v8.5c0,4.143,3.358,7.5,7.5,7.5s7.5-3.357,7.5-7.5v-8.5h8.5c4.142,0,7.5-3.357,7.5-7.5   s-3.358-7.5-7.5-7.5h-8.5v-8.5c0-4.143-3.358-7.5-7.5-7.5s-7.5,3.357-7.5,7.5v8.5h-8.5c-4.142,0-7.5,3.357-7.5,7.5   S283.37,55.021,287.512,55.021z" fill="#FFFFFF"/>
	<path d="M370.209,44.825c1.464,1.464,3.384,2.196,5.303,2.196s3.839-0.732,5.303-2.196l10.697-10.697l10.697,10.697   c1.464,1.464,3.384,2.196,5.303,2.196s3.839-0.732,5.303-2.196c2.929-2.93,2.929-7.678,0-10.607l-10.696-10.696l10.696-10.696   c2.929-2.93,2.929-7.678,0-10.607c-2.929-2.928-7.678-2.928-10.606,0l-10.697,10.697L380.815,2.218   c-2.929-2.928-7.678-2.928-10.606,0c-2.929,2.93-2.929,7.678,0,10.607l10.696,10.696l-10.696,10.696   C367.28,37.147,367.28,41.895,370.209,44.825z" fill="#FFFFFF"/>
</g>
<g>
</g>
<g>
</g>
<g>
</g>
<g>
</g>
<g>
</g>
<g>
</g>
<g>
</g>
<g>
</g>
<g>
</g>
<g>
</g>
<g>
</g>
<g>
</g>
<g>
</g>
<g>
</g>
<g>
</g>
</svg>
