<?xml version="1.0"?>
<svg xmlns="http://www.w3.org/2000/svg" height="512px" viewBox="-72 0 480 480.00002" width="512px"><path d="m0 8v272c0 2.808594 1.472656 5.410156 3.878906 6.855469l115.808594 69.488281-7.6875 115.128906c-.144531 2.210938.632812 4.382813 2.148438 6 1.515624 1.617188 3.636718 2.53125 5.851562 2.527344h96c2.214844.003906 4.335938-.910156 5.851562-2.527344 1.515626-1.617187 2.292969-3.789062 2.148438-6l-7.671875-115.128906 115.808594-69.488281c2.398437-1.449219 3.867187-4.050781 3.863281-6.855469v-272c0-4.417969-3.582031-8-8-8h-320c-4.417969 0-8 3.582031-8 8zm128.550781 456 6.9375-104h65.023438l6.9375 104zm-80.550781-448h207v80c-.007812 8.558594-6.945312 15.496094-15.503906 15.503906h-1c-8.554688-.011718-15.488282-6.949218-15.496094-15.503906v-14c0-14.359375-11.640625-26-26-26s-26 11.640625-26 26v78.503906c-.007812 8.558594-6.945312 15.492188-15.503906 15.496094h-2c-8.554688-.007812-15.488282-6.941406-15.496094-15.496094v-58.503906c-.019531-14.351562-11.648438-25.980469-26-26h-7c-14.351562.019531-25.980469 11.648438-26 26v26c.128906 5.621094-2.796875 10.871094-7.648438 13.71875-4.847656 2.847656-10.855468 2.847656-15.703124 0-4.851563-2.847656-7.777344-8.097656-7.648438-13.71875zm-32 0h16v112c-.179688 11.375 5.78125 21.960938 15.601562 27.703125 9.824219 5.738281 21.972657 5.738281 31.796876 0 9.820312-5.742187 15.78125-16.328125 15.601562-27.703125v-26c.007812-5.519531 4.480469-9.992188 10-10h7c5.519531.007812 9.992188 4.480469 10 10v58.503906c.027344 17.382813 14.113281 31.46875 31.496094 31.496094h2c17.386718-.023438 31.476562-14.109375 31.503906-31.496094v-78.503906c0-5.523438 4.476562-10 10-10s10 4.476562 10 10v14c.023438 17.386719 14.109375 31.476562 31.496094 31.503906h1c17.390625-.023437 31.480468-14.113281 31.503906-31.503906v-80h17v64h16v-64h16v216h-24v-16h-16v16h-24v-16h-16v16h-24v-16h-16v16h-24v-16h-16v16h-24v-16h-16v16h-24v-16h-16v16h-24v-16h-16v16h-24zm0 232h304v27.472656l-114.214844 68.527344h-75.570312l-114.214844-68.527344zm0 0" fill="#FFFFFF"/><path d="m240 200c17.671875 0 32-14.328125 32-32v-8c0-13.253906-10.746094-24-24-24h-16c-13.253906 0-24 10.746094-24 24v8c0 17.671875 14.328125 32 32 32zm-16-40c0-4.417969 3.582031-8 8-8h16c4.417969 0 8 3.582031 8 8v8c0 8.835938-7.164062 16-16 16s-16-7.164062-16-16zm0 0" fill="#FFFFFF"/></svg>
