<svg width="560" height="315" xmlns="http://www.w3.org/2000/svg">
 <defs>
  <clipPath id="_clipPath_xejqf9Kwnq6gHybpnhkARFjpMkMKjMs9">
   <rect id="svg_1" height="315" width="560"/>
  </clipPath>
 </defs>
 <g>
  <title>background</title>
  <rect fill="none" id="canvas_background" height="402" width="582" y="-1" x="-1"/>
 </g>
 <g>
  <title>Layer 1</title>
  <g stroke="null" id="svg_2" clip-path="url(#_clipPath_xejqf9Kwnq6gHybpnhkARFjpMkMKjMs9)">
   <path stroke="null" id="svg_3" fill="#00b6be" d="m147.369574,42.199302c-8.35128,17.826599 -10.900485,38.541565 -23.493418,53.841184c-9.883612,12.010316 -24.657765,19.036222 -37.106032,28.535923c-12.448267,9.501064 -23.386674,24.038361 -20.216671,39.100692c2.486002,11.811213 13.036761,20.466768 24.079103,25.980304c11.040937,5.514899 23.209705,8.905117 33.624226,15.470084c21.675968,13.66315 32.246391,38.44065 44.955899,60.28887c12.708103,21.848221 32.430383,43.924183 58.270755,44.149198c23.771513,0.205922 43.056987,-18.115708 65.600948,-25.437542c23.38527,-7.597306 48.020563,-2.902004 72.765408,1.791933c22.522894,4.273911 45.138486,8.546458 66.985806,3.551137c28.103055,-6.424503 51.554337,-29.148235 58.230024,-56.421349c6.675687,-27.273114 -3.738834,-57.812348 -25.860035,-75.827141c-25.105807,-20.444949 -60.661249,-23.787436 -88.560648,-40.473962c-21.116969,-12.629447 -36.681867,-32.16752 -51.988334,-51.1151c-15.305062,-18.948944 -31.395251,-38.207453 -53.06841,-49.912295c-34.118617,-18.426637 -106.299745,-11.767574 -124.21862,26.478063z"/>
  </g>
 </g>
</svg>