<svg width="560" height="315" xmlns="http://www.w3.org/2000/svg">
  <g stroke="null" transform="rotate(-20 272.99999999999994,141.9999847412108) " clip-path="url(#_clipPath_xejqf9Kwnq6gHybpnhkARFjpMkMKjMs9)" id="svg_2">
   <path stroke="null" d="m138.565993,18.582394c-8.494841,19.045365 -11.087868,41.176569 -23.897278,57.522189c-10.053515,12.831435 -25.08164,20.337687 -37.743897,30.486862c-12.662257,10.150631 -23.788699,25.681812 -20.564202,41.773922c2.528737,12.61872 13.260867,21.866037 24.493031,27.756521c11.230734,5.891941 23.608688,9.513941 34.202238,16.52774c22.048585,14.59727 32.800717,41.068754 45.728706,64.41069c12.92656,23.341937 32.987872,46.927184 59.272449,47.167583c24.180153,0.22 43.797151,-19.35424 66.72865,-27.176652c23.787271,-8.116717 48.846053,-3.100408 74.01627,1.914444c22.91007,4.566109 45.914432,9.130761 68.137315,3.793921c28.586156,-6.863732 52.440573,-31.141037 59.231018,-60.278755c6.790444,-29.137718 -3.803106,-61.764853 -26.304578,-81.011279c-25.537384,-21.842726 -61.704036,-25.413732 -90.083035,-43.241079c-21.479977,-13.492895 -37.312441,-34.366744 -52.882031,-54.609729c-15.568161,-20.244442 -31.934946,-40.819614 -53.980674,-53.324691c-34.705128,-19.686426 -108.127073,-12.572098 -126.35398,28.288311l-0.000001,0.000001z" fill="#00b6be" id="svg_3"/>
  </g>
</svg>